<svg xmlns="http://www.w3.org/2000/svg" width="32" height="32" viewBox="0 0 32 32">
  <g id="Group_4" data-name="Group 4" transform="translate(-971.5 -332.5)">
    <g id="Path_1" data-name="Path 1" transform="translate(971.5 332.5)" fill="none">
      <path d="M16,0A16,16,0,1,1,0,16,16,16,0,0,1,16,0Z" stroke="none"/>
      <path d="M 16 4 C 12.79467964172363 4 9.781219482421875 5.248220443725586 7.514720916748047 7.514720916748047 C 5.248220443725586 9.781219482421875 4 12.79467964172363 4 16 C 4 19.20532035827637 5.248220443725586 22.21878051757812 7.514720916748047 24.48527908325195 C 9.781219482421875 26.75177955627441 12.79467964172363 28 16 28 C 19.20532035827637 28 22.21878051757812 26.75177955627441 24.48527908325195 24.48527908325195 C 26.75177955627441 22.21878051757812 28 19.20532035827637 28 16 C 28 12.79467964172363 26.75177955627441 9.781219482421875 24.48527908325195 7.514720916748047 C 22.21878051757812 5.248220443725586 19.20532035827637 4 16 4 M 16 0 C 24.8365592956543 0 32 7.163440704345703 32 16 C 32 24.8365592956543 24.8365592956543 32 16 32 C 7.163440704345703 32 0 24.8365592956543 0 16 C 0 7.163440704345703 7.163440704345703 0 16 0 Z" stroke="none" fill="#fff"/>
    </g>
    <rect id="Rectangle_4" data-name="Rectangle 4" width="30" height="4" transform="translate(972.5 346.5)" fill="#fff"/>
    <circle id="Ellipse_2" data-name="Ellipse 2" cx="5" cy="5" r="5" transform="translate(982.5 343.5)" fill="#fff"/>
  </g>
</svg>
